grf
version=1
nRows=15
nColumns=37
inDegrees=no
endheader
time	ground_force_1_vx	ground_force_1_vy	ground_force_1_vz	ground_force_1_px	ground_force_1_py	ground_force_1_pz	ground_moment_1_mx	ground_moment_1_my	ground_moment_1_mz	ground_force_2_vx	ground_force_2_vy	ground_force_2_vz	ground_force_2_px	ground_force_2_py	ground_force_2_pz	ground_moment_2_mx	ground_moment_2_my	ground_moment_2_mz	ground_force_3_vx	ground_force_3_vy	ground_force_3_vz	ground_force_3_px	ground_force_3_py	ground_force_3_pz	ground_moment_3_mx	ground_moment_3_my	ground_moment_3_mz	ground_force_4_vx	ground_force_4_vy	ground_force_4_vz	ground_force_4_px	ground_force_4_py	ground_force_4_pz	ground_moment_4_mx	ground_moment_4_my	ground_moment_4_mz
      1.84000000	      0.00000000	     -0.00000000	      0.00000000	      0.00000000	      0.00000000	      0.00000000	      0.00000000	      0.00000000	      0.00000000	      7.15782166	     -2.92031312	   -743.23596191	   -320.34826920	  -1106.75194581	      0.00000000	      0.00000000	      0.00000000	    912.34879217	      0.00000000	     -0.00000000	      0.00000000	      0.00000000	      0.00000000	      0.00000000	      0.00000000	      0.00000000	      0.00000000	    -34.92584468	     16.24268646	     75.80566406	    603.95383220	   -564.31354626	      0.00000000	     -0.00000000	     -0.00000000	    -75.71549393
      1.85000000	      0.00000000	     -0.00000000	      0.00000000	      0.00000000	      0.00000000	      0.00000000	      0.00000000	      0.00000000	      0.00000000	      6.81684017	     -0.05232220	   -744.39965820	   -321.03046151	  -1107.72285730	      0.00000000	      0.00000000	      0.00000000	    719.77707192	      0.00000000	     -0.00000000	      0.00000000	      0.00000000	      0.00000000	      0.00000000	      0.00000000	      0.00000000	      0.00000000	    -34.65757609	     16.24714201	     76.96112061	    600.38658326	   -560.52765343	      0.00000000	      0.00000000	     -0.00000000	   -269.02002586
      1.86000000	      0.00000000	     -0.00000000	      0.00000000	      0.00000000	      0.00000000	      0.00000000	      0.00000000	      0.00000000	      0.00000000	      7.68291235	      2.39120889	   -743.06567383	   -321.13666954	  -1108.45048507	      0.00000000	      0.00000000	      0.00000000	    513.96879714	      0.00000000	     -0.00000000	      0.00000000	      0.00000000	      0.00000000	      0.00000000	      0.00000000	      0.00000000	      0.00000000	    -34.76208738	     16.01841658	     76.05421448	    605.05712088	   -562.53832247	      0.00000000	      0.00000000	      0.00000000	   -119.29123611
      1.87000000	      0.00000000	     -0.00000000	      0.00000000	      0.00000000	      0.00000000	      0.00000000	      0.00000000	      0.00000000	      0.00000000	      7.46762419	      1.98690414	   -742.23736572	   -321.37335345	  -1109.10949412	      0.00000000	      0.00000000	      0.00000000	    215.92955340	      0.00000000	     -0.00000000	      0.00000000	      0.00000000	      0.00000000	      0.00000000	      0.00000000	      0.00000000	      0.00000000	    -34.90018322	     16.19453735	     74.95701599	    608.40734233	   -565.17778201	      0.00000000	      0.00000000	     -0.00000000	   -161.61479434
      1.88000000	      0.00000000	     -0.00000000	      0.00000000	      0.00000000	      0.00000000	      0.00000000	      0.00000000	      0.00000000	      0.00000000	      8.15892792	      3.14553714	   -742.08953857	   -321.55782963	  -1110.26856267	      0.00000000	      0.00000000	      0.00000000	    243.82764838	      0.00000000	     -0.00000000	      0.00000000	      0.00000000	      0.00000000	      0.00000000	      0.00000000	      0.00000000	      0.00000000	    -34.68678905	     16.15680616	     76.45098114	    602.56274878	   -562.02830541	      0.00000000	      0.00000000	     -0.00000000	   -218.75297195
      1.89000000	      0.00000000	     -0.00000000	      0.00000000	      0.00000000	      0.00000000	      0.00000000	      0.00000000	      0.00000000	      0.00000000	      8.15224552	      4.61207533	   -741.57513428	   -321.26658879	  -1111.21763351	      0.00000000	      0.00000000	      0.00000000	     36.85808673	      0.00000000	     -0.00000000	      0.00000000	      0.00000000	      0.00000000	      0.00000000	      0.00000000	      0.00000000	      0.00000000	    -34.84867716	     16.29628295	     74.20832062	    612.43361210	   -566.74697189	      0.00000000	      0.00000000	     -0.00000000	   -132.96068493
      1.90000000	      0.00000000	     -0.00000000	      0.00000000	      0.00000000	      0.00000000	      0.00000000	      0.00000000	      0.00000000	      0.00000000	      6.29378748	      5.32466698	   -740.35693359	   -320.65758110	  -1111.19923878	      0.00000000	      0.00000000	     -0.00000000	   -194.79649623	      0.00000000	     -0.00000000	      0.00000000	      0.00000000	      0.00000000	      0.00000000	      0.00000000	      0.00000000	      0.00000000	    -35.05381631	     16.43845674	     76.16435242	    603.96061728	   -564.91005391	      0.00000000	      0.00000000	     -0.00000000	   -119.85610851
      1.91000000	      0.00000000	     -0.00000000	      0.00000000	      0.00000000	      0.00000000	      0.00000000	      0.00000000	      0.00000000	      0.00000000	      4.65069723	      4.77550507	   -738.44354248	   -319.17780673	  -1111.26355714	      0.00000000	      0.00000000	     -0.00000000	   -269.77911913	      0.00000000	     -0.00000000	      0.00000000	      0.00000000	      0.00000000	      0.00000000	      0.00000000	      0.00000000	      0.00000000	    -34.96456770	     15.93839665	     75.65079498	    603.45653126	   -563.68801729	      0.00000000	      0.00000000	      0.00000000	     12.77326450
      1.92000000	      0.00000000	     -0.00000000	      0.00000000	      0.00000000	      0.00000000	      0.00000000	      0.00000000	      0.00000000	      0.00000000	      2.52363896	      1.99855626	   -737.38513184	   -317.79328646	  -1111.10091879	      0.00000000	      0.00000000	     -0.00000000	   -415.24615534	      0.00000000	     -0.00000000	      0.00000000	      0.00000000	      0.00000000	      0.00000000	      0.00000000	      0.00000000	      0.00000000	    -34.77363446	     16.06631583	     76.81017303	    601.80874267	   -562.82509767	      0.00000000	      0.00000000	     -0.00000000	    -62.51787834
      1.93000000	      0.00000000	     -0.00000000	      0.00000000	      0.00000000	      0.00000000	      0.00000000	      0.00000000	      0.00000000	      0.00000000	      2.67631531	     -1.78260803	   -737.38598633	   -317.68908660	  -1110.56242706	      0.00000000	      0.00000000	     -0.00000000	   -430.47136590	      0.00000000	     -0.00000000	      0.00000000	      0.00000000	      0.00000000	      0.00000000	      0.00000000	      0.00000000	      0.00000000	    -35.15649272	     16.29706309	     74.40185547	    612.30811780	   -566.34273400	      0.00000000	      0.00000000	     -0.00000000	   -215.40688965
      1.94000000	      0.00000000	     -0.00000000	      0.00000000	      0.00000000	      0.00000000	      0.00000000	      0.00000000	      0.00000000	      0.00000000	      3.77350974	     -4.18912888	   -738.34906006	   -317.61195512	  -1109.22734932	      0.00000000	      0.00000000	      0.00000000	   -381.18252684	      0.00000000	     -0.00000000	      0.00000000	      0.00000000	      0.00000000	      0.00000000	      0.00000000	      0.00000000	      0.00000000	    -34.79904033	     16.22028655	     75.40508270	    606.20253918	   -563.49083985	      0.00000000	      0.00000000	     -0.00000000	   -136.24231432
      1.95000000	      0.00000000	     -0.00000000	      0.00000000	      0.00000000	      0.00000000	      0.00000000	      0.00000000	      0.00000000	      0.00000000	      5.34010267	     -5.57716036	   -740.26513672	   -317.29320879	  -1109.42829750	      0.00000000	      0.00000000	     -0.00000000	   -145.11106712	      0.00000000	     -0.00000000	      0.00000000	      0.00000000	      0.00000000	      0.00000000	      0.00000000	      0.00000000	      0.00000000	    -34.69700861	     16.34880369	     76.45705414	    602.01310823	   -562.41878350	      0.00000000	      0.00000000	     -0.00000000	    -91.66754175
      1.96000000	      0.00000000	     -0.00000000	      0.00000000	      0.00000000	      0.00000000	      0.00000000	      0.00000000	      0.00000000	      0.00000000	      7.08585072	     -6.21365595	   -735.47210693	   -317.55810049	  -1109.22921060	      0.00000000	      0.00000000	     -0.00000000	   -123.87967098	      0.00000000	     -0.00000000	      0.00000000	      0.00000000	      0.00000000	      0.00000000	      0.00000000	      0.00000000	      0.00000000	    -34.95279172	     15.97522660	     75.35232544	    608.64512724	   -562.62833149	      0.00000000	      0.00000000	     -0.00000000	   -169.55875472
      1.97000000	      0.00000000	     -0.00000000	      0.00000000	      0.00000000	      0.00000000	      0.00000000	      0.00000000	      0.00000000	      0.00000000	      7.91398096	     -6.95248127	   -729.21582031	   -316.63437554	  -1108.36594185	      0.00000000	      0.00000000	     -0.00000000	     -3.62733452	      0.00000000	     -0.00000000	      0.00000000	      0.00000000	      0.00000000	      0.00000000	      0.00000000	      0.00000000	      0.00000000	    -34.83798076	     16.20679016	     76.05284119	    603.57390498	   -563.28734228	      0.00000000	     -0.00000000	     -0.00000000	    -54.12654785
      1.98000000	      0.00000000	     -0.00000000	      0.00000000	      0.00000000	      0.00000000	      0.00000000	      0.00000000	      0.00000000	      0.00000000	      7.31526184	     -6.39204264	   -723.41290283	   -316.41668128	  -1108.05361877	      0.00000000	      0.00000000	     -0.00000000	     -9.85779630	      0.00000000	     -0.00000000	      0.00000000	      0.00000000	      0.00000000	      0.00000000	      0.00000000	      0.00000000	      0.00000000	    -34.70988320	     16.55441588	     76.05722809	    603.68492766	   -565.53851378	      0.00000000	      0.00000000	     -0.00000000	   -108.39385405
